<svg viewBox="0 0 45 55" fill="none" xmlns="http://www.w3.org/2000/svg">
<path d="M33.7937 5.29906H27.4009C27.4009 2.37036 25.0363 0.00585938 22.1076 0.00585938C19.1784 0.00585938 16.8143 2.37036 16.8143 5.29906H10.4209V14.4654H33.7937V5.29906Z" fill="white" fill-opacity="0.9"/>
<path d="M36.0475 9.80615V16.7198H8.16862V9.80615H0.0585938V54.0799H44.1477V9.80615H36.0475ZM8.38745 48.5481L4.84022 45.0013L6.4331 43.4083L8.38745 45.3621L13.0922 40.657L14.6851 42.2499L8.38745 48.5481ZM8.38745 38.5392L4.84022 34.9926L6.4331 33.3996L8.38745 35.3533L13.0922 30.6481L14.6851 32.2411L8.38745 38.5392ZM8.38745 28.5305L4.84022 24.9826L6.4331 23.3896L8.38745 25.3445L13.0922 20.6394L14.6851 22.2323L8.38745 28.5305ZM38.5696 46.6349H17.7917V44.382H38.5696V46.6349ZM38.5696 36.6262H17.7917V34.3732H38.5696V36.6262ZM38.5696 26.6163H17.7917V24.3633H38.5696V26.6163Z" fill="white" fill-opacity="0.9"/>
</svg>
