<svg width="27" height="45" viewBox="0 0 27 45" fill="none" xmlns="http://www.w3.org/2000/svg">
<path d="M16.1125 31.0081H8.17648V18.4641C9.00848 18.6561 9.71248 18.7201 10.4805 18.7201C16.4965 18.7201 18.3525 15.0721 18.3525 12.3201C18.3525 9.44005 16.4965 7.26405 13.5525 7.26405C9.07248 7.26405 9.00848 11.6161 9.00848 12.1921V12.5761H0.688477V12.1921C0.688477 4.51205 6.64048 0.352051 13.6805 0.352051C21.2965 0.352051 26.6725 4.96005 26.6725 12.3201C26.6725 18.2721 22.8325 23.2641 16.1125 24.2881V31.0081ZM7.15248 39.8401C7.15248 37.0241 9.32848 34.8481 12.1445 34.8481C14.9605 34.8481 17.1365 37.0241 17.1365 39.8401C17.1365 42.6561 14.9605 44.8321 12.1445 44.8321C9.32848 44.8321 7.15248 42.6561 7.15248 39.8401Z" fill="white"/>
</svg>
