<svg width="55" height="62" viewBox="0 0 55 62" fill="none" xmlns="http://www.w3.org/2000/svg">
<path d="M27.2619 31.1219V11.5452M27.2619 2.36865V11.5452M27.2619 11.5452L34.8071 6.44711M27.2619 11.5452L19.7168 6.44711" stroke="#F8FCFF" stroke-width="4" stroke-miterlimit="1.78933" stroke-linecap="round" stroke-linejoin="round"/>
<path d="M27.2619 31.1218V50.6985M27.2619 59.875V50.6985M27.2619 50.6985L34.8071 55.7965M27.2619 50.6985L19.7168 55.7965" stroke="#F8FCFF" stroke-width="4" stroke-miterlimit="1.78933" stroke-linecap="round" stroke-linejoin="round"/>
<path d="M27.2602 31.1211L44.2141 21.3328M52.1612 16.7445L44.2141 21.3328M44.2141 21.3328L52.4018 25.318M44.2141 21.3328L44.8566 12.2494" stroke="#F8FCFF" stroke-width="4" stroke-miterlimit="1.78933" stroke-linecap="round" stroke-linejoin="round"/>
<path d="M27.2615 31.1211L10.3076 40.9094M2.36047 45.4977L10.3076 40.9094M10.3076 40.9094L9.66509 49.9927M10.3076 40.9094L2.11994 36.9241" stroke="#F8FCFF" stroke-width="4" stroke-miterlimit="1.78933" stroke-linecap="round" stroke-linejoin="round"/>
<path d="M27.7224 31.1829L10.7685 21.3945M2.8214 16.8063L10.7685 21.3945M10.7685 21.3945L10.126 12.3112M10.7685 21.3945L2.58088 25.3798" stroke="#F8FCFF" stroke-width="4" stroke-miterlimit="1.78933" stroke-linecap="round" stroke-linejoin="round"/>
<path d="M27.7212 31.1826L44.6751 40.9709M52.6222 45.5592L44.6751 40.9709M44.6751 40.9709L52.8627 36.9857M44.6751 40.9709L45.3176 50.0543" stroke="#F8FCFF" stroke-width="4" stroke-miterlimit="1.78933" stroke-linecap="round" stroke-linejoin="round"/>
</svg>
